PathFileType	4	(X/Y/Z)	/home/abdul/Desktop/myosuite/custom_workspace/IK/output/S13_12_2.trc
DataRate	CameraRate	NumFrames	NumMarkers	Units	OrigDataRate	OrigDataStartFrame	OrigNumFrames
200.0	200.0	61	3	mm	200.0	877	1403
Frame#	Time	V_Shoulder			V_Elbow			V_Wrist		
		X1	Y1	Z1	X2	Y2	Z2	X3	Y3	Z3

877	4.38	-80.33989365196078	607.9534586324233	337.96401743050274	-179.5314907343112	464.02196239189857	31.192724447666926	-101.0621519130025	206.74089288670825	57.722633331473304
878	4.385	-80.35900379683659	607.9540922244244	337.95332278479236	-179.51818063404443	464.0514206730106	31.153347924446905	-101.06452578251162	206.7596768907872	57.57037184836671
879	4.39	-80.37859514645356	607.9547347608362	337.9426800034758	-179.50529513747813	464.08039864546004	31.114247229480792	-101.0682721414983	206.777959358585	57.42031305721899
880	4.395	-80.39864469218767	607.9553934450188	337.9320961387736	-179.49276687549784	464.10889083557015	31.075427120675595	-101.07330505290923	206.79570213425302	57.272447823989026
881	4.4	-80.41912930067473	607.9560759066841	337.9215780225964	-179.48052991511634	464.1368923234142	31.03689246467823	-101.07953766771207	206.8128705778926	57.126771924809674
882	4.405	-80.4400257399749	607.956790167295	337.9111322580123	-179.46851993092957	464.164398783142	30.998648231964964	-101.08688253827775	206.82943360045226	56.98328593043597
883	4.41	-80.46131070573513	607.9575446055097	337.9007652111787	-179.45667437396742	464.19140653178385	30.9606994884968	-101.09525193513527	206.8453636956238	56.84199506674061
884	4.415	-80.48296084732492	607.9583479227585	337.8904830037513	-179.4449326370792	464.21791258589894	30.923051383960058	-101.1045581656449	206.86063696841012	56.70290905162898
885	4.42	-80.50495279392214	607.9592091090427	337.8802915057802	-179.433236216005	464.24391472538775	30.885709136631885	-101.11471389313223	206.87523316002273	56.56604190886203
886	4.425	-80.52726318052471	607.9601374090372	337.8701963291042	-179.4215288652996	464.2694115637448	30.848678014930655	-101.12563245503019	206.88913566875377	56.43141175939259
887	4.43	-80.54986867386492	607.9611422885795	337.8602028212534	-179.40975674829673	464.2944026239853	30.811963315731443	-101.13722817858891	206.902331566459	56.299040590938446
888	4.435	-80.5727459982027	607.9622334016257	337.85031605986626	-179.39786858032684	464.318888419447	30.775570339547087	-101.14941669273298	206.9148116102811	56.16895400663202
889	4.44	-80.59587196097473	607.9634205577513	337.84054084763324	-179.3858157644285	464.3428705386382	30.739504362695254	-101.16211523467204	206.9265702492401	56.04118095370302
890	4.445	-80.61922347827611	607.96471369027	337.8308817077704	-179.37355251882826	464.3663517332786	30.70377060659149	-101.17524294990574	206.9376056253174	55.915753433264626
891	4.45	-80.64277760015062	607.9661228250424	337.82134288003175	-179.36103599549892	464.389336008658	30.66837420432775	-101.18872118430296	206.94791956866476	55.79270619238598
892	4.455	-80.66651153566708	607.9676580500433	337.8119283172661	-179.34822638914613	464.41182871542924	30.633320164714434	-101.2024737669831	206.95751758657445	55.67207639974252
893	4.46	-80.69040267775729	607.9693294857533	337.8026416825226	-179.3350870360165	464.43383664193755	30.5986133339822	-101.216427282778	206.96640884585827	55.55390330624088
894	4.465	-80.71442862779263	607.9711472564362	337.7934863467106	-179.32158450196607	464.45536810619063	30.564258355357346	-101.23051133311216	206.97460614829603	55.43822789211577
895	4.47	-80.73856721987488	607.9731214623602	337.7844653868162	-179.30768865927584	464.4764330465722	30.530259626741014	-101.24465878419996	206.98212589883013	55.325092502091294
896	4.475	-80.76279654481748	607.9752621530183	337.77558158467997	-179.29337275175345	464.49704311040955	30.496621256738436	-101.25880600152607	206.98898806620178	55.21454047028858
897	4.48	-80.78709497379236	607.977579301399	337.76683742633685	-179.27861344771122	464.51721173952086	30.463347019298816	-101.27289306964612	206.99521613574768	55.10661573664367
898	4.485	-80.8114411816183	607.980082779355	337.7582351019209	-179.2633908804674	464.53695425188084	30.430440307240282	-101.28686399641781	207.00083705410026	55.001362456674784
899	4.49	-80.83581416966517	607.9827823341117	337.74977650613414	-179.24768867607287	464.55628791856884	30.397904084946507	-101.30066690085071	207.0058811655622	54.89882460650484
900	4.495	-80.86019328834892	607.9856875659572	337.7414632392813	-179.23149396802393	464.57523203518974	30.365740840532723	-101.31425418384158	207.0103821399568	54.79904558510254
901	4.5	-80.88455825919203	607.9888079071469	337.7332966088681	-179.2147973987806	464.59380798698703	30.333952537788292	-101.32758268114392	207.01437689178826	54.70206781575432
902	4.505	-80.90888919642272	607.9921526020566	337.72527763176305	-179.19759310796852	464.6120393069073	30.302540568211157	-101.34061379800326	207.01790549058074	54.607932348817236
903	4.51	-80.93316662808705	607.9957306886085	337.7174070369188	-179.17987870720356	464.6299517259109	30.27150570345583	-101.35331362497311	207.0210110623026	54.51667846783114
904	4.515	-80.95737151664696	607.999550980995	337.70968526865164	-179.16165524153826	464.6475732148682	30.240848048521503	-101.3656530345112	207.02373968182084	54.42834330108496
905	4.52	-80.98148527903736	608.00362205372	337.7021124904732	-179.14292713758857	464.6649340174287	30.21056699600971	-101.37760775804014	207.0261402563725	54.34296144073734
906	4.525	-81.00548980615497	608.0079522269702	337.6946885894716	-179.1237021384598	464.68206667329963	30.180661181782224	-101.38915844324056	207.02826440008045	54.26056457158555
907	4.53	-81.0293674817512	608.0125495533283	337.6874131812339	-179.10399122564934	464.6990060314227	30.151128442348963	-101.40029069142847	207.0301662995867	54.18118111155805
908	4.535	-81.05310120070135	608.0174218058346	337.6802856153057	-179.08380852816254	464.71578925259644	30.121965774313182	-101.4109950749514	207.03190257091987	54.104835865975794
909	4.54	-81.0766743866221	608.0225764674	337.67330498117786	-179.0631712191352	464.73245580114656	30.093169296196326	-101.42126713461869	207.03353210775916	54.0315496975841
910	4.545	-81.10007100880938	608.0280207215666	337.66647011479466	-179.0420994003113	464.7490474253093	30.06473421295839	-101.43110735726104	207.0351159213052	53.96133921430234
911	4.55	-81.12327559846807	608.0337614446124	337.6597796055709	-179.02061597478058	464.76560812605385	30.03665478352077	-101.44052113359243	207.0367169720133	53.89421647657114
912	4.555	-81.14627326420567	608.0398051989891	337.6532318039102	-178.99874650843162	464.78218411413275	30.008924291587846	-101.44951869662268	207.03839999349267	53.830188726097816
913	4.56	-81.16904970676164	608.0461582280797	337.6468248292108	-178.9765190806273	464.7988237552186	29.98153502005068	-101.45811504094233	207.04023130892205	53.76925813770977
914	4.565	-81.19159123294452	608.0528264522582	337.64055657834746	-178.95396412465902	464.8155775030441	29.95447822924136	-101.46632982327195	207.04227864037915	53.71142159592349
915	4.57	-81.21388476874922	608.0598154662312	337.6344247346156	-178.93111425858044	464.83249782053576	29.927744139289626	-101.47418724473647	207.0446109115277	53.65667049772379
916	4.575	-81.23591787162682	608.0671305376345	337.6284267771237	-178.90800410706686	464.8496390889936	29.90132191681477	-101.48171591539	207.04729804415018	53.6049905829247
917	4.58	-81.25767874188035	608.074776606857	337.62255999061574	-178.88467011498653	464.8670575054374	29.875199666165088	-101.48894870157872	207.0504107490603	53.55636179335047
918	4.585	-81.27915623315987	608.0827582880601	337.6168214757099	-178.86115035340814	464.8848109683071	29.849364425394604	-101.49592255678891	207.05402031197124	53.510758161933495
919	4.59	-81.30033986203127	608.0910798713569	337.611208159533	-178.83748431880514	464.90295895176916	29.8238021671429	-101.50267833668282	207.05819837493772	53.46814773267599
920	4.595	-81.321219816594	608.0997453261137	337.6057168067319	-178.81371272624853	464.92156236894607	29.79849780455794	-101.50926059907866	207.063016714029	53.42849251226511
921	4.6	-81.34178696412327	608.1087583053301	337.6003440308414	-178.78987729740936	464.94068342444916	29.77343520237478	-101.51571738967988	207.06854701392834	53.391748453968006
922	4.605	-81.36203285771425	608.1181221510541	337.5950863059873	-178.76602054421767	464.9603854566575	29.74859719323454	-101.5221000144058	207.0748606401883	53.357865474264685
923	4.61	-81.38194974190579	608.1278399007857	337.5899399789007	-178.7421855490465	464.98073277024366	29.72396559929814	-101.52846279921891	207.08202840990532	53.326787502503386
924	4.615	-81.4015305572636	608.1379142948177	337.5849012812201	-178.71841574230947	465.0017904595072	29.699521259178915	-101.53486283838343	207.09012036160567	53.298452563687675
925	4.62	-81.42076894390311	608.1483477844616	337.5799663420559	-178.6947546783741	465.0236242231301	29.675244060186543	-101.54135973212632	207.0992055251623	53.27279289432617
926	4.625	-81.43965924393483	608.1591425411037	337.5751312007904	-178.67124581070556	465.0463001710232	29.651112975842686	-101.54801531470528	207.10935169258602	53.24973509109708
927	4.63	-81.45819650281562	608.1703004660357	337.5703918200856	-178.6479322671634	465.06988462397896	29.627106108596095	-101.55489337391725	207.12062519055337	53.2292002919013
928	4.635	-81.47637646959186	608.1818232009989	337.5657440990704	-178.624856626378	465.0944439068984	29.603200737632264	-101.5620593631078	207.13309065555075	53.211104388700704
929	4.64	-81.49419559602194	608.1937121393851	337.56118388667625	-178.60206069613417	465.12004413639613	29.579373371639726	-101.56958010676409	207.14681081252706	53.19535827136404
930	4.645	-81.51165103456754	608.2059684380285	337.5567069950916	-178.57958529468615	465.14675100363274	29.555599806362665	-101.57752350079433	207.16184625795603	53.18186810157229
931	4.65	-81.52874063524574	608.2185930295295	337.55230921330127	-178.55747003592228	465.17462955325755	29.531855186737218	-101.58595820861163	207.17825524821302	53.17053561566962
932	4.655	-81.54546294133537	608.2315866350434	337.54798632067946	-178.53575311928623	465.2037439593755	29.508114073377474	-101.59495335415377	207.19609349417314	53.16125845518688
933	4.66	-81.56181718393435	608.2449497774696	337.54373410060015	-178.5144711253488	465.2341572994826	29.48435051314638	-101.60457821297908	207.2154139629318	53.153930523611585
934	4.665	-81.57780327536621	608.2586827949782	337.5395483540317	-178.49365881790587	465.2659313273358	29.460538113517458	-101.61490190258479	207.23626668754218	53.14844236783455
935	4.67	-81.59342180143732	608.272785854804	337.53542491307826	-178.4733489534584	465.2991262457424	29.43665012040476	-101.62599307309694	207.25869858565	53.14468158256781
936	4.675	-81.6086740125484	608.2872589672467	337.53135965443226	-178.4535720989051	465.33380048027135	29.41265949911225	-101.63791959947926	207.28275328788953	53.14253323590324
937	4.68	-81.62356181366708	608.3021019998058	337.5273485126999	-178.43435645825062	465.3700104548951	29.388539018028613	-101.65074827640566	207.3084709768837	53.14188031406661
